<svg xmlns="http://www.w3.org/2000/svg" viewBox="0 0 256 256" width="256" height="256">
  <defs>
    <linearGradient id="grad1" x1="0%" y1="0%" x2="100%" y2="100%">
      <stop offset="0%" style="stop-color:#6366f1;stop-opacity:1" />
      <stop offset="100%" style="stop-color:#8b5cf6;stop-opacity:1" />
    </linearGradient>
    <linearGradient id="grad2" x1="0%" y1="0%" x2="100%" y2="100%">
      <stop offset="0%" style="stop-color:#f472b6;stop-opacity:1" />
      <stop offset="100%" style="stop-color:#ec4899;stop-opacity:1" />
    </linearGradient>
  </defs>
  
  <rect width="256" height="256" rx="40" fill="url(#grad1)"/>
  
  <rect x="30" y="40" width="196" height="176" rx="12" fill="#1e1b4b" opacity="0.4"/>
  
  <rect x="45" y="55" width="60" height="50" rx="4" fill="#fbbf24"/>
  <rect x="50" y="60" width="50" height="40" rx="2" fill="#f59e0b"/>
  <circle cx="75" cy="80" r="12" fill="#fbbf24"/>
  
  <rect x="115" y="55" width="60" height="50" rx="4" fill="#a78bfa"/>
  <rect x="120" y="60" width="50" height="40" rx="2" fill="#8b5cf6"/>
  <rect x="135" y="65" width="20" height="30" rx="2" fill="#a78bfa"/>
  
  <rect x="45" y="115" width="60" height="50" rx="4" fill="#34d399"/>
  <rect x="50" y="120" width="50" height="40" rx="2" fill="#10b981"/>
  <rect x="60" y="130" width="30" height="20" rx="2" fill="#34d399"/>
  
  <rect x="115" y="115" width="60" height="50" rx="4" fill="#f472b6"/>
  <rect x="120" y="120" width="50" height="40" rx="2" fill="#ec4899"/>
  <circle cx="145" cy="140" r="15" fill="#f472b6"/>
  
  <polygon points="118,165 118,195 188,180" fill="#22d3ee"/>
  
  <rect x="80" y="225" width="96" height="20" rx="10" fill="url(#grad2)"/>
  <polygon points="115,228 115,242 142,235" fill="white"/>
  
  <text x="128" y="15" text-anchor="middle" font-family="Arial, sans-serif" font-size="14" font-weight="bold" fill="white">VIDEO</text>
</svg>
